# xmcd
#
# Track frame offsets: 
#        150
#        5440
#        27043
#        44474
#        62447
#        71614
#        106130
#        121470
#        130640
#        161136
#        182621
#        191714
#        214852
#        254390
#        260376
#        262669
#        264983
#
# Disc length: 3567 seconds
#
# Revision: 0
# Processed by: cddbd v1.5.2PL0 Copyright (c) Steve Scherf et al.
# Submitted via: ExactAudioCopy v0.95b4
#
DISCID=e50ded11
DTITLE=Eric Clapton - His Majesty's Hand [CD4]
DYEAR=1994
DGENRE=Blues
TTITLE0=DJ - EC and B.B. King Interview
TTITLE1=Everyday I have the blues
TTITLE2=Someday after a while
TTITLE3=Crosscut saw
TTITLE4=CM - Spot
TTITLE5=Have you ever loved a woman
TTITLE6=I'm tore down
TTITLE7=CM - Spot
TTITLE8=Groanin' the blues
TTITLE9=EC Interview-Ain't nobody's business
TTITLE10=CM - Spot
TTITLE11=EC Interview-Early in the morning
TTITLE12=Driftin'
TTITLE13=EC Interview
TTITLE14=Announcement Next week
TTITLE15=Announcement This week
TTITLE16=Announcement Today
EXTD=
EXTT0=
EXTT1=
EXTT2=
EXTT3=
EXTT4=
EXTT5=
EXTT6=
EXTT7=
EXTT8=
EXTT9=
EXTT10=
EXTT11=
EXTT12=
EXTT13=
EXTT14=
EXTT15=
EXTT16=
PLAYORDER=
